<svg width="146" height="108" viewBox="0 0 146 108" fill="none" xmlns="http://www.w3.org/2000/svg">
<path d="M97.3325 53.9999C91.0788 53.9999 85.0321 51.1833 80.2992 46.0718C75.6972 41.086 72.8867 34.4372 72.3909 27.3559C71.8617 19.802 74.146 12.8557 78.821 7.79317C83.496 2.73068 90.0325 0 97.3325 0C104.581 0 111.136 2.77977 115.795 7.82999C120.501 12.9293 122.791 19.8634 122.262 27.3528C121.754 34.4434 118.946 41.089 114.354 46.0687C109.633 51.1833 103.589 53.9999 97.3325 53.9999ZM137.431 108H57.2374C55.9481 108.007 54.6744 107.715 53.5143 107.148C52.3542 106.58 51.3387 105.752 50.5458 104.726C49.7048 103.614 49.124 102.325 48.847 100.955C48.5699 99.5843 48.6037 98.1686 48.9459 96.8133C51.507 86.4398 57.8519 77.8366 67.2931 71.9365C75.6729 66.7022 86.34 63.8181 97.3325 63.8181C108.541 63.8181 118.928 66.5795 127.357 71.8107C136.819 77.6801 143.173 86.3324 145.722 96.8317C146.06 98.188 146.09 99.6037 145.81 100.973C145.53 102.343 144.947 103.631 144.104 104.741C143.312 105.762 142.299 106.587 141.142 107.152C139.985 107.716 138.716 108.007 137.431 108ZM39.8453 55.2272C29.1417 55.2272 19.7308 45.1881 18.8579 32.851C18.426 26.5305 20.3787 20.6857 24.3329 16.3994C28.2444 12.1561 33.762 9.81817 39.8453 9.81817C45.9286 9.81817 51.4035 12.1684 55.3364 16.4362C59.321 20.7562 61.2676 26.5888 60.8114 32.8571C59.9384 45.1912 50.5306 55.2272 39.8453 55.2272ZM59.8168 64.8766C54.4665 62.238 47.5224 60.9187 39.8483 60.9187C30.8876 60.9187 22.1855 63.275 15.3417 67.5521C7.58249 72.409 2.36302 79.4812 0.255153 88.0199C-0.0533159 89.2481 -0.0824916 90.5307 0.169808 91.7719C0.422108 93.013 0.949352 94.1806 1.7121 95.1872C2.43586 96.1244 3.36306 96.8817 4.42242 97.4008C5.48177 97.92 6.64504 98.1871 7.82278 98.1817H41.5851C42.155 98.1816 42.7067 97.9798 43.1442 97.6114C43.5816 97.243 43.877 96.7315 43.9789 96.1659C44.0123 95.9726 44.0549 95.7793 44.1036 95.5891C46.6829 85.1389 52.7267 76.3087 61.657 69.8716C61.9854 69.6328 62.2496 69.3151 62.4256 68.9472C62.6015 68.5794 62.6837 68.1731 62.6647 67.7651C62.6457 67.3571 62.526 66.9604 62.3166 66.6108C62.1072 66.2613 61.8146 65.97 61.4653 65.7633C60.9878 65.4811 60.4403 65.1834 59.8168 64.8766Z" fill="#E08521"/>
</svg>
