<svg width="150" height="132" viewBox="0 0 150 132" fill="none" xmlns="http://www.w3.org/2000/svg">
<path d="M117.483 30.8768L119.245 32.6503L119.251 32.6442L117.483 30.8768ZM108.516 30.8768L106.748 32.6442L106.754 32.6503L108.516 30.8768ZM103.254 25.6117L101.481 27.3746L101.485 27.3791L103.254 25.6117ZM101.404 21.1297L98.9042 21.1297L101.404 21.1297ZM103.254 16.6477L101.486 14.8799L101.481 14.8848L103.254 16.6477ZM115.167 4.73392L113.4 2.96538L113.4 2.96615L115.167 4.73392ZM115.106 4.41085L116.109 2.12056L116.1 2.11656L116.09 2.11262L115.106 4.41085ZM91.1173 9.07897L92.8786 10.8532L92.8789 10.853L91.1173 9.07897ZM86.9338 32.0216L84.5271 32.698L84.5271 32.6983L86.9338 32.0216ZM85.1382 38.3753L83.4417 36.539L83.4364 36.5439L85.1382 38.3753ZM44.6375 76.0105L46.3052 77.873L46.3224 77.8576L46.3393 77.8419L44.6375 76.0105ZM58.1151 89.4811L56.2896 87.7731L56.2704 87.7935L56.2518 87.8144L58.1151 89.4811ZM96.0758 48.9102L97.9013 50.6182L97.9071 50.6119L96.0758 48.9102ZM102.343 47.1075L101.696 49.5223L101.698 49.5228L102.343 47.1075ZM125.068 42.9076L123.313 41.1266L123.313 41.1267L125.068 42.9076ZM129.773 18.9513L132.022 17.858L132.014 17.8434L132.007 17.8289L129.773 18.9513ZM129.455 18.8998L127.689 17.1304L127.687 17.1324L129.455 18.8998ZM65.9517 56.0542C66.9415 57.0168 68.5243 56.9948 69.4869 56.005C70.4496 55.0152 70.4275 53.4324 69.4377 52.4698L67.6947 54.262L65.9517 56.0542ZM60.4374 47.1708L58.6754 48.9444C58.6805 48.9495 58.6857 48.9545 58.6908 48.9596L60.4374 47.1708ZM59.6578 42.1726L57.4738 40.9559C57.462 40.9771 57.4506 40.9984 57.4394 41.0199L59.6578 42.1726ZM60.4772 41.091L58.7318 39.3012C58.7261 39.3067 58.7204 39.3124 58.7147 39.318L60.4772 41.091ZM64.148 37.5115L65.8933 39.3014C65.9014 39.2936 65.9094 39.2856 65.9174 39.2777L64.148 37.5115ZM65.466 36.6055L64.4541 34.3195L64.4509 34.3209L65.466 36.6055ZM70.1482 37.453L68.3992 39.2393L68.4069 39.2469L70.1482 37.453ZM76.225 46.8567C77.2139 47.8203 78.7967 47.7998 79.7603 46.8109C80.7238 45.822 80.7033 44.2393 79.7145 43.2757L77.9697 45.0662L76.225 46.8567ZM91.1861 54.1407C90.1753 53.2002 88.5934 53.2572 87.6529 54.268C86.7124 55.2789 86.7694 56.8608 87.7803 57.8013L89.4832 55.971L91.1861 54.1407ZM115.235 79.2437L113.635 81.1647L113.645 81.1728L115.235 79.2437ZM115.455 83.9071L113.69 82.1363L113.688 82.1391L115.455 83.9071ZM107.641 91.7193L109.388 93.5074C109.395 93.5008 109.401 93.4941 109.408 93.4873L107.641 91.7193ZM102.891 91.5414L100.997 93.1735C101.003 93.1803 101.009 93.1871 101.015 93.1938L102.891 91.5414ZM81.4567 64.7632C80.502 63.7657 78.9195 63.731 77.922 64.6857C76.9245 65.6404 76.8899 67.223 77.8446 68.2204L79.6506 66.4918L81.4567 64.7632ZM19.3139 33.0751L17.5666 31.2871C17.5443 31.3089 17.5224 31.3311 17.5009 31.3538L19.3139 33.0751ZM26.199 26.3468L27.9463 28.1349L27.9517 28.1296L26.199 26.3468ZM26.9974 26.0308L26.94 28.5301C26.9681 28.5308 26.9962 28.5309 27.0243 28.5306L26.9974 26.0308ZM27.7957 26.3468L29.5538 24.5695C29.5448 24.5606 29.5357 24.5517 29.5265 24.5428L27.7957 26.3468ZM29.713 26.9953L29.4405 24.5102C29.4252 24.5119 29.4099 24.5137 29.3946 24.5157L29.713 26.9953ZM32.1875 26.0308L33.9103 27.8424C33.9153 27.8377 33.9202 27.833 33.9251 27.8283L32.1875 26.0308ZM33.2036 20.2858L31.2078 18.7801C31.1974 18.7939 31.1871 18.8079 31.1769 18.8219L33.2036 20.2858ZM37.8342 14.9949L36.0844 13.2094L36.0774 13.2163L37.8342 14.9949ZM54.1984 4.5888L55.1322 6.90787L55.1353 6.90661L54.1984 4.5888ZM63.6376 2.75807L63.6352 5.25807H63.6376V2.75807ZM74.4675 6.42655L76.1908 4.61538C76.1759 4.60127 76.161 4.58735 76.1458 4.57362L74.4675 6.42655ZM76.8741 9.15157L76.0096 11.4973C77.0463 11.8794 78.2108 11.5357 78.8739 10.6519C79.537 9.76808 79.5412 8.55384 78.8844 7.66539L76.8741 9.15157ZM74.718 8.50309L75.2908 6.0696C75.2729 6.06537 75.2548 6.06134 75.2368 6.05751L74.718 8.50309ZM70.0358 8.20811L70.2396 10.6998L70.2436 10.6995L70.0358 8.20811ZM61.1397 11.4856L59.5965 9.51878L59.5883 9.52523L61.1397 11.4856ZM56.2679 21.9526L53.771 21.829L53.7708 21.8324L56.2679 21.9526ZM64.7192 34.9433L66.5813 33.2752C66.5509 33.2412 66.5195 33.208 66.4873 33.1758L64.7192 34.9433ZM64.6396 37.0877L62.9063 35.2861C62.8984 35.2938 62.8905 35.3015 62.8826 35.3092L64.6396 37.0877ZM60.3742 41.3017L62.1245 43.0868L62.1312 43.0801L60.3742 41.3017ZM58.1408 41.3227L56.373 43.0905C56.3899 43.1074 56.4071 43.1241 56.4245 43.1405L58.1408 41.3227ZM43.3217 30.7855L43.591 28.3001C43.5835 28.2992 43.5758 28.2985 43.5682 28.2977L43.3217 30.7855ZM39.0446 31.6915L40.2484 33.8826C40.2585 33.877 40.2686 33.8714 40.2786 33.8657L39.0446 31.6915ZM38.4265 32.1597L36.6432 30.4077C36.6387 30.4122 36.6342 30.4168 36.6298 30.4214L38.4265 32.1597ZM38.5248 36.8606L36.8024 38.6725C36.8071 38.6771 36.8119 38.6816 36.8168 38.6861L38.5248 36.8606ZM38.9252 37.2352L40.6677 35.4426C40.6563 35.4315 40.6448 35.4205 40.6333 35.4097L38.9252 37.2352ZM38.9252 38.7897L37.1826 36.997L37.1785 37.001L38.9252 38.7897ZM32.0471 45.5063L30.3004 43.7176C30.2896 43.7282 30.2789 43.7388 30.2683 43.7496L32.0471 45.5063ZM31.2488 45.834L31.28 43.3342C31.2613 43.334 31.2426 43.3339 31.2239 43.3341L31.2488 45.834ZM30.4505 45.518L28.7043 47.307C28.7099 47.3125 28.7155 47.318 28.7212 47.3234L30.4505 45.518ZM19.3139 34.6483L17.5009 36.3696C17.5227 36.3926 17.545 36.4152 17.5677 36.4374L19.3139 34.6483ZM117.483 30.8768L115.721 29.1033C114.997 29.822 114.019 30.2253 112.999 30.2253V32.7253V35.2253C115.34 35.2253 117.585 34.2996 119.245 32.6503L117.483 30.8768ZM112.999 32.7253V30.2253C111.98 30.2253 111.002 29.822 110.278 29.1033L108.516 30.8768L106.754 32.6503C108.414 34.2996 110.659 35.2253 112.999 35.2253V32.7253ZM108.516 30.8768L110.284 29.1094L105.022 23.8443L103.254 25.6117L101.485 27.3791L106.748 32.6442L108.516 30.8768ZM103.254 25.6117L105.026 23.8488C104.308 23.1263 103.904 22.1487 103.904 21.1297L101.404 21.1297L98.9042 21.1297C98.9042 23.47 99.8306 25.7152 101.481 27.3746L103.254 25.6117ZM101.404 21.1297L103.904 21.1297C103.904 20.1107 104.308 19.1331 105.026 18.4106L103.254 16.6477L101.481 14.8848C99.8306 16.5442 98.9042 18.7894 98.9042 21.1297L101.404 21.1297ZM103.254 16.6477L105.021 18.4155L116.935 6.50169L115.167 4.73392L113.4 2.96615L101.486 14.8799L103.254 16.6477ZM115.167 4.73392L116.934 6.50246C117.245 6.19187 117.475 5.81007 117.605 5.39025L115.217 4.65192L112.828 3.91358C112.939 3.55567 113.135 3.23018 113.4 2.96538L115.167 4.73392ZM115.217 4.65192L117.605 5.39025C117.735 4.97024 117.76 4.52507 117.679 4.09344L115.222 4.55631L112.765 5.01918C112.696 4.65121 112.718 4.27169 112.828 3.91358L115.217 4.65192ZM115.222 4.55631L117.679 4.09344C117.598 3.66158 117.412 3.25615 117.138 2.91236L115.182 4.46923L113.226 6.0261C112.993 5.733 112.835 5.38736 112.765 5.01918L115.222 4.55631ZM115.182 4.46923L117.138 2.91236C116.865 2.56869 116.511 2.29681 116.109 2.12056L115.106 4.41085L114.104 6.70114C113.761 6.55086 113.459 6.31907 113.226 6.0261L115.182 4.46923ZM115.106 4.41085L116.09 2.11262C107.481 -1.57346 96.4205 0.28994 89.3558 7.30498L91.1173 9.07897L92.8789 10.853C98.4748 5.29638 107.356 3.81203 114.122 6.70907L115.106 4.41085ZM91.1173 9.07897L89.3561 7.3047C82.3652 14.2442 82.1964 24.4053 84.5271 32.698L86.9338 32.0216L89.3406 31.3452C87.2326 23.8449 87.752 15.9422 92.8786 10.8532L91.1173 9.07897ZM86.9338 32.0216L84.5271 32.6983C84.7178 33.3763 84.7173 34.0938 84.5258 34.7716L86.9315 35.4515L89.3373 36.1314C89.7795 34.5667 89.7806 32.9102 89.3405 31.3449L86.9338 32.0216ZM86.9315 35.4515L84.5258 34.7716C84.3342 35.4494 83.959 36.0611 83.4417 36.539L85.1382 38.3753L86.8347 40.2116C88.029 39.1082 88.8951 37.6961 89.3373 36.1314L86.9315 35.4515ZM85.1382 38.3753L83.4364 36.5439L42.9357 74.1792L44.6375 76.0105L46.3393 77.8419L86.84 40.2067L85.1382 38.3753ZM44.6375 76.0105L42.9698 74.1481C41.7498 75.2405 40.7655 76.5702 40.077 78.0559L42.3452 79.1071L44.6135 80.1583C45.0161 79.2894 45.5918 78.5118 46.3052 77.873L44.6375 76.0105ZM42.3452 79.1071L40.077 78.0559C39.3884 79.5417 39.0101 81.1522 38.9652 82.7891L41.4643 82.8577L43.9633 82.9263C43.9896 81.969 44.2108 81.0271 44.6135 80.1583L42.3452 79.1071ZM41.4643 82.8577L38.9652 82.7891C38.9203 84.4261 39.2097 86.0549 39.8158 87.5762L42.1383 86.6509L44.4608 85.7257C44.1063 84.8361 43.9371 83.8835 43.9633 82.9263L41.4643 82.8577ZM42.1383 86.6509L39.8158 87.5762C40.4218 89.0975 41.3318 90.4791 42.49 91.6367L44.2573 89.8685L46.0246 88.1003C45.3473 87.4233 44.8152 86.6153 44.4608 85.7257L42.1383 86.6509ZM44.2573 89.8685L42.49 91.6367C43.6482 92.7943 45.0304 93.7036 46.5519 94.3088L47.476 91.9859L48.4 89.6629C47.5102 89.309 46.7019 88.7772 46.0246 88.1003L44.2573 89.8685ZM47.476 91.9859L46.5519 94.3088C48.0735 94.9141 49.7025 95.2027 51.3394 95.1569L51.2696 92.6579L51.1997 90.1589C50.2425 90.1856 49.2898 90.0169 48.4 89.6629L47.476 91.9859ZM51.2696 92.6579L51.3394 95.1569C52.9763 95.1111 54.5867 94.732 56.0721 94.0427L55.0197 91.775L53.9674 89.5073C53.0987 89.9104 52.157 90.1321 51.1997 90.1589L51.2696 92.6579ZM55.0197 91.775L56.0721 94.0427C57.5575 93.3534 58.8867 92.3684 59.9784 91.1479L58.1151 89.4811L56.2518 87.8144C55.6133 88.5281 54.836 89.1042 53.9674 89.5073L55.0197 91.775ZM58.1151 89.4811L59.9406 91.1892L97.9013 50.6182L96.0758 48.9102L94.2502 47.2021L56.2896 87.7731L58.1151 89.4811ZM96.0758 48.9102L97.9071 50.6119C98.3799 50.1031 98.9825 49.7328 99.6499 49.5408L98.9589 47.1383L98.2678 44.7357C96.7268 45.1789 95.3358 46.0338 94.2444 47.2084L96.0758 48.9102ZM98.9589 47.1383L99.6499 49.5408C100.317 49.3488 101.025 49.3424 101.696 49.5223L102.343 47.1075L102.99 44.6928C101.441 44.2776 99.8088 44.2924 98.2678 44.7357L98.9589 47.1383ZM102.343 47.1075L101.698 49.5228C109.922 51.7202 119.922 51.4862 126.822 44.6886L125.068 42.9076L123.313 41.1267C118.236 46.1281 110.431 46.6808 102.988 44.6923L102.343 47.1075ZM125.068 42.9076L126.822 44.6886C130.488 41.0772 132.636 36.1761 133.467 31.3836C134.293 26.6166 133.867 21.6526 132.022 17.858L129.773 18.9513L127.525 20.0447C128.798 22.6622 129.237 26.5066 128.54 30.5298C127.847 34.5274 126.083 38.3984 123.313 41.1266L125.068 42.9076ZM129.773 18.9513L132.007 17.8289C131.816 17.4477 131.536 17.1169 131.192 16.8642L129.713 18.8802L128.235 20.8961C127.941 20.6807 127.703 20.3987 127.539 20.0737L129.773 18.9513ZM129.713 18.8802L131.192 16.8642C130.847 16.6116 130.448 16.4444 130.026 16.3763L129.627 18.8442L129.228 21.3121C128.869 21.254 128.528 21.1116 128.235 20.8961L129.713 18.8802ZM129.627 18.8442L130.026 16.3763C129.605 16.3081 129.173 16.3409 128.767 16.472L129.534 18.8513L130.302 21.2305C129.955 21.3423 129.587 21.3703 129.228 21.3121L129.627 18.8442ZM129.534 18.8513L128.767 16.472C128.361 16.603 127.991 16.8285 127.689 17.1304L129.455 18.8998L131.221 20.6692C130.963 20.9267 130.648 21.1189 130.302 21.2305L129.534 18.8513ZM129.455 18.8998L127.687 17.1324L115.715 29.1094L117.483 30.8768L119.251 32.6442L131.223 20.6672L129.455 18.8998ZM67.6947 54.262L69.4377 52.4698C65.3453 48.4898 63.4856 46.6531 62.1839 45.3821L60.4374 47.1708L58.6908 48.9596C59.969 50.2076 61.8597 52.0745 65.9517 56.0542L67.6947 54.262ZM60.4374 47.1708L62.1993 45.3973C61.9317 45.1314 61.7561 44.787 61.6979 44.4143L59.2278 44.7996L56.7577 45.1849C56.98 46.6104 57.6519 47.9276 58.6754 48.9444L60.4374 47.1708ZM59.2278 44.7996L61.6979 44.4143C61.6398 44.0416 61.7022 43.6601 61.8762 43.3253L59.6578 42.1726L57.4394 41.0199C56.7742 42.3001 56.5353 43.7594 56.7577 45.1849L59.2278 44.7996ZM59.6578 42.1726L61.8417 43.3893C61.9492 43.1965 62.0831 43.0197 62.2396 42.8641L60.4772 41.091L58.7147 39.318C58.2265 39.8033 57.8088 40.3546 57.4738 40.9559L59.6578 42.1726ZM60.4772 41.091L62.2225 42.8809L65.8933 39.3014L64.148 37.5115L62.4026 35.7216L58.7318 39.3012L60.4772 41.091ZM64.148 37.5115L65.9174 39.2777C66.0798 39.1149 66.2709 38.9835 66.4811 38.8902L65.466 36.6055L64.4509 34.3209C63.6784 34.6641 62.9758 35.1471 62.3786 35.7454L64.148 37.5115ZM65.466 36.6055L66.4779 38.8916C66.7962 38.7507 67.1494 38.7085 67.4919 38.7705L67.9372 36.3105L68.3825 33.8505C67.0556 33.6103 65.6872 33.7737 64.4541 34.3195L65.466 36.6055ZM67.9372 36.3105L67.4919 38.7705C67.8344 38.8325 68.1505 38.9958 68.3992 39.2393L70.1482 37.453L71.8972 35.6667C70.9337 34.7233 69.7093 34.0906 68.3825 33.8505L67.9372 36.3105ZM70.1482 37.453L68.4069 39.2469C69.6809 40.4835 72.0158 42.7552 76.225 46.8567L77.9697 45.0662L79.7145 43.2757C75.5051 39.174 73.1672 36.8994 71.8894 35.6591L70.1482 37.453ZM89.4832 55.971L87.7803 57.8013C97.3578 66.7123 109.036 77.3347 113.635 81.1647L115.235 79.2437L116.835 77.3226C112.36 73.5956 100.782 63.0687 91.1861 54.1407L89.4832 55.971ZM115.235 79.2437L113.645 81.1728C113.715 81.2305 113.772 81.3023 113.813 81.3836L116.048 80.2642L118.284 79.1447C117.931 78.4397 117.434 77.8162 116.825 77.3146L115.235 79.2437ZM116.048 80.2642L113.813 81.3836C113.854 81.4649 113.877 81.5537 113.881 81.6445L116.378 81.5266L118.876 81.4088C118.838 80.6211 118.637 79.8498 118.284 79.1447L116.048 80.2642ZM116.378 81.5266L113.881 81.6445C113.885 81.7352 113.871 81.8259 113.838 81.9106L116.169 82.8146L118.5 83.7185C118.785 82.9833 118.913 82.1965 118.876 81.4088L116.378 81.5266ZM116.169 82.8146L113.838 81.9106C113.805 81.9953 113.755 82.0722 113.69 82.1364L115.455 83.9071L117.22 85.6779C117.779 85.1212 118.214 84.4538 118.5 83.7185L116.169 82.8146ZM115.455 83.9071L113.688 82.1391L105.873 89.9513L107.641 91.7193L109.408 93.4873L117.223 85.6752L115.455 83.9071ZM107.641 91.7193L105.893 89.9312C105.818 90.0049 105.728 90.0625 105.63 90.1005L106.53 92.4329L107.43 94.7654C108.161 94.4833 108.827 94.0552 109.388 93.5074L107.641 91.7193ZM106.53 92.4329L105.63 90.1005C105.532 90.1384 105.426 90.156 105.321 90.152L105.227 92.6503L105.134 95.1485C105.917 95.1779 106.698 95.0475 107.43 94.7654L106.53 92.4329ZM105.227 92.6503L105.321 90.152C105.216 90.1481 105.112 90.1227 105.017 90.0775L103.945 92.3361L102.873 94.5947C103.581 94.9308 104.35 95.1192 105.134 95.1485L105.227 92.6503ZM103.945 92.3361L105.017 90.0775C104.921 90.0323 104.836 89.9682 104.767 89.889L102.891 91.5414L101.015 93.1938C101.533 93.782 102.165 94.2587 102.873 94.5947L103.945 92.3361ZM102.891 91.5414L104.784 89.9093C100.867 85.3645 90.3948 74.1016 81.4567 64.7632L79.6506 66.4918L77.8446 68.2204C86.783 77.5592 97.1741 88.7379 100.997 93.1735L102.891 91.5414ZM19.3139 33.0751L21.0612 34.8631L27.9463 28.1348L26.199 26.3468L24.4518 24.5588L17.5666 31.2871L19.3139 33.0751ZM26.199 26.3468L27.9517 28.1296C27.8184 28.2606 27.6602 28.3636 27.4864 28.4324L26.5662 26.1079L25.6459 23.7834C25.1979 23.9608 24.79 24.2263 24.4464 24.564L26.199 26.3468ZM26.5662 26.1079L27.4864 28.4324C27.3126 28.5012 27.1268 28.5344 26.94 28.5301L26.9974 26.0308L27.0547 23.5314C26.573 23.5204 26.094 23.6061 25.6459 23.7834L26.5662 26.1079ZM26.9974 26.0308L27.0243 28.5306C26.6671 28.5345 26.3226 28.3981 26.0649 28.1508L27.7957 26.3468L29.5265 24.5428C28.8397 23.884 27.922 23.5207 26.9704 23.5309L26.9974 26.0308ZM27.7957 26.3468L26.0375 28.1241C26.5569 28.6379 27.1865 29.0266 27.8785 29.2606L28.6795 26.8924L29.4804 24.5242C29.508 24.5335 29.5331 24.549 29.5538 24.5695L27.7957 26.3468ZM28.6795 26.8924L27.8785 29.2606C28.5705 29.4947 29.3068 29.568 30.0314 29.4749L29.713 26.9953L29.3946 24.5157C29.4235 24.512 29.4529 24.5149 29.4804 24.5242L28.6795 26.8924ZM29.713 26.9953L29.9855 29.4804C31.0796 29.3604 32.6987 28.9946 33.9103 27.8424L32.1875 26.0308L30.4648 24.2191C30.4728 24.2115 30.4091 24.2722 30.2039 24.3463C30.004 24.4186 29.7426 24.4771 29.4405 24.5102L29.713 26.9953ZM32.1875 26.0308L33.9251 27.8283C34.7935 26.9888 35.1259 25.9829 35.2417 25.142C35.3478 24.3716 35.2873 23.5958 35.2523 23.1106C35.1567 21.7893 35.2476 21.7255 35.2302 21.7496L33.2036 20.2858L31.1769 18.8219C29.9234 20.5574 30.2086 22.6872 30.2653 23.4711C30.3063 24.0385 30.3114 24.2932 30.2884 24.4599C30.2752 24.556 30.2839 24.3938 30.45 24.2333L32.1875 26.0308ZM33.2036 20.2858L35.1993 21.7914C36.5398 20.0147 38.0076 18.3376 39.5911 16.7735L37.8342 14.9949L36.0774 13.2163C34.3216 14.9505 32.6942 16.81 31.2078 18.7801L33.2036 20.2858ZM37.8342 14.9949L39.584 16.7804C40.8633 15.5268 46.1734 10.5151 55.1322 6.90787L54.1984 4.5888L53.2646 2.26973C43.4666 6.21486 37.6145 11.7099 36.0844 13.2094L37.8342 14.9949ZM54.1984 4.5888L55.1353 6.90661C57.836 5.81496 60.7222 5.2552 63.6352 5.25807L63.6376 2.75807L63.6401 0.25807C60.0833 0.254565 56.5592 0.938051 53.2615 2.27098L54.1984 4.5888ZM63.6376 2.75807V5.25807C68.2524 5.25807 71.7423 7.33123 72.7892 8.27947L74.4675 6.42655L76.1458 4.57362C74.2617 2.86707 69.5999 0.258069 63.6376 0.258069V2.75807ZM74.4675 6.42655L72.7442 8.23772C73.5189 8.97483 74.2281 9.77786 74.8638 10.6377L76.8741 9.15157L78.8844 7.66539C78.0766 6.57262 77.1753 5.55212 76.1908 4.61538L74.4675 6.42655ZM76.8741 9.15157L77.7387 6.80583C76.9385 6.51088 76.121 6.26501 75.2908 6.0696L74.718 8.50309L74.1452 10.9366C74.7775 11.0854 75.4001 11.2727 76.0096 11.4973L76.8741 9.15157ZM74.718 8.50309L75.2368 6.05751C73.4602 5.68063 71.638 5.56583 69.8281 5.71676L70.0358 8.20811L70.2436 10.6995C71.5672 10.5891 72.8999 10.673 74.1992 10.9487L74.718 8.50309ZM70.0358 8.20811L69.8321 5.71643C66.2818 6.00674 62.0367 7.6041 59.5965 9.5188L61.1397 11.4856L62.683 13.4525C64.2647 12.2114 67.5485 10.9198 70.2396 10.6998L70.0358 8.20811ZM61.1397 11.4856L59.5883 9.52523C55.6282 12.6591 54.0167 16.8644 53.771 21.829L56.2679 21.9526L58.7649 22.0762C58.9592 18.1494 60.143 15.4625 62.6911 13.446L61.1397 11.4856ZM56.2679 21.9526L53.7708 21.8324C53.7257 22.7684 53.7392 23.7595 53.9853 24.8352C54.2334 25.9198 54.6878 26.9635 55.3809 28.0772C56.7093 30.2116 59.0619 32.8203 62.9512 36.7108L64.7192 34.9433L66.4873 33.1758C62.562 29.2494 60.6094 27.0156 59.626 25.4353C59.1631 24.6916 58.96 24.1599 58.8594 23.7202C58.7568 23.2717 58.7305 22.7897 58.765 22.0729L56.2679 21.9526ZM64.7192 34.9433L62.8571 36.6114C62.6921 36.4272 62.605 36.186 62.6141 35.9388L65.1124 36.0316L67.6107 36.1243C67.6496 35.0771 67.2805 34.0557 66.5813 33.2752L64.7192 34.9433ZM65.1124 36.0316L62.6141 35.9388C62.6233 35.6916 62.7281 35.4576 62.9063 35.2861L64.6396 37.0877L66.3729 38.8893C67.1281 38.1627 67.5718 37.1715 67.6107 36.1243L65.1124 36.0316ZM64.6396 37.0877L62.8826 35.3092L58.6172 39.5232L60.3742 41.3017L62.1312 43.0801L66.3966 38.8662L64.6396 37.0877ZM60.3742 41.3017L58.6239 39.5166C58.7881 39.3556 59.0082 39.2645 59.2381 39.2623L59.2617 41.7622L59.2853 44.2621C60.3481 44.2521 61.3656 43.8308 62.1245 43.0867L60.3742 41.3017ZM59.2617 41.7622L59.2381 39.2623C59.4681 39.2601 59.6899 39.3471 59.8571 39.5049L58.1408 41.3227L56.4245 43.1405C57.1973 43.8701 58.2226 44.2721 59.2853 44.2621L59.2617 41.7622ZM58.1408 41.3227L59.9086 39.555C54.6956 34.342 51.0929 31.5817 48.9034 30.2522L47.6059 32.3892L46.3084 34.5261C48.0285 35.5705 51.3133 38.0308 56.373 43.0905L58.1408 41.3227ZM47.6059 32.3892L48.9034 30.2522C46.6148 28.8626 44.6864 28.4188 43.591 28.3001L43.3217 30.7855L43.0524 33.271C43.4694 33.3162 44.6874 33.5418 46.3084 34.5261L47.6059 32.3892ZM43.3217 30.7855L43.5682 28.2977C41.5691 28.0996 39.5577 28.5257 37.8105 29.5173L39.0446 31.6915L40.2786 33.8657C41.1272 33.3841 42.1042 33.1771 43.0752 33.2733L43.3217 30.7855ZM39.0446 31.6915L37.8407 29.5005C37.3995 29.7429 36.996 30.0485 36.6432 30.4077L38.4265 32.1597L40.2099 33.9118C40.2212 33.9002 40.2342 33.8904 40.2484 33.8826L39.0446 31.6915ZM38.4265 32.1597L36.6298 30.4214C36.0963 30.9729 35.6772 31.6246 35.3969 32.3388L37.7241 33.2521L40.0513 34.1654C40.0904 34.0658 40.1489 33.975 40.2233 33.898L38.4265 32.1597ZM37.7241 33.2521L35.3969 32.3388C35.1166 33.0531 34.9806 33.8158 34.9966 34.583L37.4961 34.5307L39.9955 34.4784C39.9933 34.3714 40.0123 34.265 40.0513 34.1654L37.7241 33.2521ZM37.4961 34.5307L34.9966 34.583C35.0127 35.3501 35.1805 36.1065 35.4904 36.8084L37.7774 35.7986L40.0644 34.7887C40.0212 34.6909 39.9978 34.5854 39.9955 34.4784L37.4961 34.5307ZM37.7774 35.7986L35.4904 36.8084C35.8004 37.5103 36.2462 38.1439 36.8024 38.6725L38.5248 36.8606L40.2473 35.0487C40.1698 34.975 40.1076 34.8866 40.0644 34.7887L37.7774 35.7986ZM38.5248 36.8606L36.8168 38.6861L37.2171 39.0607L38.9252 37.2352L40.6333 35.4097L40.2329 35.0351L38.5248 36.8606ZM38.9252 37.2352L37.1827 39.0279C37.0469 38.8959 36.939 38.738 36.8653 38.5636L39.1681 37.5906L41.471 36.6175C41.2845 36.1761 41.0113 35.7766 40.6677 35.4426L38.9252 37.2352ZM39.1681 37.5906L36.8653 38.5636C36.7916 38.3892 36.7536 38.2018 36.7536 38.0124H39.2536H41.7536C41.7536 37.5332 41.6575 37.0589 41.471 36.6175L39.1681 37.5906ZM39.2536 38.0124H36.7536C36.7536 37.8231 36.7916 37.6357 36.8653 37.4613L39.1681 38.4343L41.471 39.4074C41.6575 38.966 41.7536 38.4917 41.7536 38.0124H39.2536ZM39.1681 38.4343L36.8653 37.4613C36.939 37.2869 37.0469 37.129 37.1827 36.997L38.9252 38.7897L40.6677 40.5823C41.0113 40.2483 41.2845 39.8488 41.471 39.4074L39.1681 38.4343ZM38.9252 38.7897L37.1785 37.001L30.3004 43.7176L32.0471 45.5063L33.7937 47.2949L40.6718 40.5783L38.9252 38.7897ZM32.0471 45.5063L30.2683 43.7496C30.4004 43.6158 30.558 43.5101 30.7318 43.4388L31.6813 45.7515L32.6308 48.0641C33.0789 47.8802 33.4854 47.6077 33.8258 47.263L32.0471 45.5063ZM31.6813 45.7515L30.7318 43.4388C30.9057 43.3674 31.0921 43.3319 31.28 43.3342L31.2488 45.834L31.2175 48.3338C31.702 48.3399 32.1826 48.2481 32.6308 48.0641L31.6813 45.7515ZM31.2488 45.834L31.2239 43.3341C31.5797 43.3306 31.9228 43.4664 32.1797 43.7125L30.4505 45.518L28.7212 47.3234C29.4074 47.9806 30.3235 48.3433 31.2736 48.3339L31.2488 45.834ZM30.4505 45.518L32.1967 43.7289L21.0601 32.8592L19.3139 34.6483L17.5677 36.4374L28.7043 47.307L30.4505 45.518ZM19.3139 34.6483L21.1269 32.927C21.3665 33.1793 21.5 33.5139 21.5 33.8617H19H16.5C16.5 34.795 16.8583 35.6927 17.5009 36.3696L19.3139 34.6483ZM19 33.8617H21.5C21.5 34.2096 21.3665 34.5441 21.1269 34.7964L19.3139 33.0751L17.5009 31.3538C16.8583 32.0307 16.5 32.9284 16.5 33.8617H19ZM0 129.5V132H150V129.5V127H0V129.5Z" fill="#E38888"/>
</svg>
