<svg width="65" height="53" viewBox="0 0 65 53" fill="none" xmlns="http://www.w3.org/2000/svg">
<path d="M55.4613 17.2643C54.8144 17.907 53.9395 18.2677 53.0276 18.2677C52.1157 18.2677 51.2408 17.907 50.5939 17.2643L47.737 14.4061C47.094 13.7596 46.7331 12.8849 46.7331 11.973C46.7331 11.0612 47.094 10.1865 47.737 9.53998L54.2044 3.07256C54.2168 3.06013 54.2261 3.04485 54.2312 3.02805C54.2364 3.01125 54.2375 2.99343 54.2342 2.97615C54.2309 2.95886 54.2235 2.94264 54.2126 2.92888C54.2016 2.91511 54.1875 2.90424 54.1713 2.89718C49.9978 1.11035 44.5852 2.01902 41.1488 5.43128C37.8598 8.69613 37.673 13.5991 38.8778 17.8857C39.049 18.4946 39.0486 19.139 38.8766 19.7477C38.7045 20.3563 38.3676 20.9056 37.9031 21.3348L15.9171 41.7652C15.3924 42.2351 14.969 42.8071 14.6728 43.4462C14.3766 44.0853 14.2139 44.7781 14.1946 45.4822C14.1753 46.1863 14.2998 46.887 14.5605 47.5414C14.8211 48.1958 15.2126 48.7901 15.7108 49.288C16.209 49.786 16.8035 50.1771 17.458 50.4375C18.1125 50.6978 18.8133 50.8219 19.5174 50.8023C20.2215 50.7826 20.9142 50.6195 21.5532 50.323C22.1921 50.0265 22.7639 49.6028 23.2335 49.0778L43.8405 27.0537C44.2651 26.5968 44.8062 26.2643 45.4056 26.0918C46.0051 25.9194 46.6401 25.9137 47.2426 26.0752C51.4949 27.2113 56.328 26.9978 59.5789 23.7952C63.0725 20.3537 63.8261 14.2714 62.1333 10.7905C62.1256 10.7752 62.1144 10.762 62.1007 10.7519C62.0869 10.7418 62.0709 10.7351 62.054 10.7324C62.0372 10.7296 62.0199 10.7309 62.0036 10.7362C61.9873 10.7414 61.9726 10.7505 61.9605 10.7625L55.4613 17.2643Z" stroke="#01408D" stroke-width="3" stroke-miterlimit="10" stroke-linecap="round"/>
<path d="M28.434 29.959C26.2126 27.7986 25.1946 26.7933 24.4944 26.1096C24.1439 25.7615 23.9139 25.3105 23.8378 24.8224C23.7616 24.3343 23.8434 23.8347 24.0712 23.3963C24.1913 23.1808 24.341 22.9831 24.516 22.8092L26.5087 20.866C26.7149 20.6595 26.9575 20.4927 27.2242 20.3742C27.6453 20.1878 28.1126 20.132 28.5657 20.214C29.0188 20.2961 29.4369 20.5121 29.7659 20.8343C30.4585 21.5065 31.7269 22.7406 34.0119 24.9671M40.262 30.8868C45.4661 35.7288 51.7785 41.4692 54.2414 43.5204C54.4256 43.6722 54.576 43.861 54.6829 44.0744C54.7898 44.2878 54.8508 44.5213 54.8621 44.7597C54.8733 44.9982 54.8345 45.2363 54.7482 45.4589C54.6619 45.6814 54.53 45.8835 54.3609 46.052L50.1188 50.2928C49.9461 50.4615 49.7409 50.5933 49.5157 50.6802C49.2905 50.7671 49.05 50.8073 48.8087 50.7982C48.5675 50.7892 48.3306 50.7312 48.1126 50.6277C47.8945 50.5242 47.6997 50.3774 47.5402 50.1962C45.4394 47.7587 39.7765 41.6675 34.9243 36.598" stroke="#01408D" stroke-width="3" stroke-linecap="round" stroke-linejoin="round"/>
<path d="M2.17042 18.4577L5.90802 14.8052C5.96511 14.7491 6.03288 14.705 6.10732 14.6755C6.18176 14.646 6.26135 14.6318 6.34139 14.6336C6.50273 14.6319 6.65832 14.6935 6.77475 14.8052C6.9101 14.9391 7.07418 15.0404 7.25453 15.1014C7.43487 15.1624 7.62675 15.1815 7.81559 15.1572C8.30233 15.1039 8.82211 14.9539 9.15889 14.6336C9.9214 13.8965 9.03943 12.4439 9.71044 11.5149C10.4777 10.498 11.3178 9.53805 12.2242 8.6428C12.9867 7.89553 16.0165 5.04372 21.1075 2.99382C22.7357 2.33573 24.4756 1.99828 26.2316 2.00001C29.1025 2.00001 31.3151 3.27087 32.1106 3.99145C32.5882 4.44577 33.0253 4.94073 33.4171 5.47073C33.0345 5.3297 32.6436 5.21214 32.2466 5.1187C31.4117 4.9416 30.5554 4.88765 29.7049 4.95857C28.0109 5.0971 25.9673 5.88122 24.8756 6.73778C23.1091 8.13573 22.3504 10.0064 22.231 12.4198C22.1446 14.2143 22.5766 15.2284 26.8188 19.4718C26.9638 19.6337 27.0403 19.8455 27.0322 20.0626C27.0242 20.2797 26.9322 20.4853 26.7756 20.6359L24.4601 22.9235C24.2986 23.0817 24.0822 23.1713 23.8562 23.1735C23.6301 23.1756 23.412 23.0901 23.2477 22.9349C20.4594 20.1466 18.59 18.7296 17.5288 18.0853C16.4676 17.441 15.6136 17.2592 15.2031 17.2148C14.3969 17.1349 13.5858 17.3067 12.8812 17.7066C12.7576 17.7745 12.6446 17.8601 12.5457 17.9608C12.3807 18.1313 12.2511 18.3329 12.1644 18.5538C12.0777 18.7747 12.0357 19.0106 12.0406 19.2478C12.0456 19.4851 12.0975 19.719 12.1934 19.9361C12.2892 20.1532 12.4271 20.3491 12.5991 20.5126L12.8164 20.716C12.8728 20.7708 12.9177 20.8364 12.9483 20.9089C12.9789 20.9814 12.9947 21.0592 12.9947 21.1379C12.9947 21.2166 12.9789 21.2945 12.9483 21.3669C12.9177 21.4394 12.8728 21.505 12.8164 21.5598L9.08264 25.2059C9.02607 25.2632 8.95854 25.3085 8.88408 25.3391C8.80962 25.3696 8.72976 25.3849 8.64927 25.3839C8.48795 25.3855 8.33241 25.3239 8.21591 25.2123L2.17042 19.3117C2.061 19.1964 2 19.0436 2 18.8847C2 18.7258 2.061 18.5729 2.17042 18.4577Z" stroke="#01408D" stroke-width="3" stroke-linecap="round" stroke-linejoin="round"/>
</svg>
