<svg width="61" height="61" viewBox="0 0 61 61" fill="none" xmlns="http://www.w3.org/2000/svg">
<path d="M56.7038 44.0396C55.7177 43.1282 54.2684 42.904 53.0283 42.6949C51.31 42.411 50.6526 42.0972 49.6515 41.2007C47.5149 39.3032 47.5149 36.554 49.6515 34.6564L54.1788 30.6372C61.1115 24.5113 61.1115 14.4707 54.1788 8.3448C49.0688 3.84747 42.2108 1.62122 35.0838 1.62122C26.7615 1.62122 18.0656 4.6543 11.357 10.6009C-1.119 21.6276 -1.119 39.6917 11.357 50.7183C17.5576 56.2018 25.9248 58.9361 34.2022 58.9958H34.4562C42.7337 58.9958 50.8917 56.3213 56.6889 51.1666C58.8404 49.269 58.4804 45.6981 56.7038 44.0396Z" stroke="#01408D" stroke-width="3" stroke-miterlimit="10"/>
<path d="M13.9553 27.9179C16.5959 27.9179 18.7365 25.7773 18.7365 23.1367C18.7365 20.4961 16.5959 18.3555 13.9553 18.3555C11.3147 18.3555 9.17407 20.4961 9.17407 23.1367C9.17407 25.7773 11.3147 27.9179 13.9553 27.9179Z" fill="#01408D"/>
<path d="M15.1508 43.3076C17.7914 43.3076 19.9321 41.1669 19.9321 38.5263C19.9321 35.8857 17.7914 33.7451 15.1508 33.7451C12.5103 33.7451 10.3696 35.8857 10.3696 38.5263C10.3696 41.1669 12.5103 43.3076 15.1508 43.3076Z" fill="#01408D"/>
<path d="M25.9087 18.3556C28.5493 18.3556 30.6899 16.215 30.6899 13.5744C30.6899 10.9338 28.5493 8.79315 25.9087 8.79315C23.2681 8.79315 21.1274 10.9338 21.1274 13.5744C21.1274 16.215 23.2681 18.3556 25.9087 18.3556Z" fill="#01408D"/>
<path d="M30.6896 54.0651C34.6505 54.0651 37.8615 50.8542 37.8615 46.8933C37.8615 42.9324 34.6505 39.7215 30.6896 39.7215C26.7288 39.7215 23.5178 42.9324 23.5178 46.8933C23.5178 50.8542 26.7288 54.0651 30.6896 54.0651Z" fill="#01408D"/>
<path d="M41.4475 18.3556C44.0881 18.3556 46.2287 16.215 46.2287 13.5744C46.2287 10.9338 44.0881 8.79315 41.4475 8.79315C38.8069 8.79315 36.6663 10.9338 36.6663 13.5744C36.6663 16.215 38.8069 18.3556 41.4475 18.3556Z" fill="#01408D"/>
</svg>
