<svg width="150" height="132" viewBox="0 0 150 132" fill="none" xmlns="http://www.w3.org/2000/svg">
<path d="M42.5411 43.5408C46.6363 43.5408 49.9562 40.221 49.9562 36.1257C49.9562 32.0305 46.6363 28.7107 42.5411 28.7107C38.4459 28.7107 35.1261 32.0305 35.1261 36.1257C35.1261 40.221 38.4459 43.5408 42.5411 43.5408Z" fill="#E38888"/>
<path d="M44.3948 67.4081C48.49 67.4081 51.8099 64.0882 51.8099 59.993C51.8099 55.8978 48.49 52.5779 44.3948 52.5779C40.2996 52.5779 36.9798 55.8978 36.9798 59.993C36.9798 64.0882 40.2996 67.4081 44.3948 67.4081Z" fill="#E38888"/>
<path d="M61.0785 28.7107C65.1737 28.7107 68.4935 25.3909 68.4935 21.2957C68.4935 17.2005 65.1737 13.8806 61.0785 13.8806C56.9832 13.8806 53.6634 17.2005 53.6634 21.2957C53.6634 25.3909 56.9832 28.7107 61.0785 28.7107Z" fill="#E38888"/>
<path d="M68.4938 84.0919C74.6366 84.0919 79.6164 79.1121 79.6164 72.9693C79.6164 66.8265 74.6366 61.8467 68.4938 61.8467C62.351 61.8467 57.3712 66.8265 57.3712 72.9693C57.3712 79.1121 62.351 84.0919 68.4938 84.0919Z" fill="#E38888"/>
<path d="M85.1777 28.7107C89.2729 28.7107 92.5928 25.3909 92.5928 21.2957C92.5928 17.2005 89.2729 13.8806 85.1777 13.8806C81.0825 13.8806 77.7626 17.2005 77.7626 21.2957C77.7626 25.3909 81.0825 28.7107 85.1777 28.7107Z" fill="#E38888"/>
<path d="M0 129.5H150M108.839 68.5435C107.309 67.13 105.061 66.7824 103.138 66.458C100.473 66.0177 99.4538 65.5311 97.9013 64.1408C94.5877 61.1979 94.5877 56.9343 97.9013 53.9914L104.922 47.7582C115.674 38.2576 115.674 22.686 104.922 13.1855C96.9976 6.21069 86.3616 2.75806 75.3086 2.75806C62.4017 2.75806 48.9156 7.46198 38.5114 16.6845C19.1627 33.7854 19.1627 61.8004 38.5114 78.9014C48.1278 87.4055 61.1041 91.646 73.9414 91.7387H74.3353C87.1726 91.7387 99.8246 87.5909 108.815 79.5965C112.152 76.6537 111.594 71.1156 108.839 68.5435ZM49.9562 36.1257C49.9562 40.221 46.6363 43.5408 42.5411 43.5408C38.4459 43.5408 35.1261 40.221 35.1261 36.1257C35.1261 32.0305 38.4459 28.7107 42.5411 28.7107C46.6363 28.7107 49.9562 32.0305 49.9562 36.1257ZM51.8099 59.993C51.8099 64.0882 48.49 67.4081 44.3948 67.4081C40.2996 67.4081 36.9798 64.0882 36.9798 59.993C36.9798 55.8978 40.2996 52.5779 44.3948 52.5779C48.49 52.5779 51.8099 55.8978 51.8099 59.993ZM68.4935 21.2957C68.4935 25.3909 65.1737 28.7107 61.0785 28.7107C56.9832 28.7107 53.6634 25.3909 53.6634 21.2957C53.6634 17.2005 56.9832 13.8806 61.0785 13.8806C65.1737 13.8806 68.4935 17.2005 68.4935 21.2957ZM79.6164 72.9693C79.6164 79.1121 74.6366 84.0919 68.4938 84.0919C62.351 84.0919 57.3712 79.1121 57.3712 72.9693C57.3712 66.8265 62.351 61.8467 68.4938 61.8467C74.6366 61.8467 79.6164 66.8265 79.6164 72.9693ZM92.5928 21.2957C92.5928 25.3909 89.2729 28.7107 85.1777 28.7107C81.0825 28.7107 77.7626 25.3909 77.7626 21.2957C77.7626 17.2005 81.0825 13.8806 85.1777 13.8806C89.2729 13.8806 92.5928 17.2005 92.5928 21.2957Z" stroke="#E38888" stroke-width="5"/>
</svg>
