<svg width="150" height="133" viewBox="0 0 150 133" fill="none" xmlns="http://www.w3.org/2000/svg">
<path d="M22 33.0792L20.7597 30.9086C19.9807 31.3537 19.5 32.1821 19.5 33.0792C19.5 33.9764 19.9807 34.8047 20.7597 35.2499L22 33.0792ZM75.0918 2.74109L76.3322 0.570481C75.5636 0.131292 74.6201 0.131291 73.8515 0.570481L75.0918 2.74109ZM128.184 33.0792L130.684 33.0793C130.684 32.1821 130.203 31.3537 129.424 30.9086L128.184 33.0792ZM43.4613 44.4561C43.4613 43.0754 42.342 41.9561 40.9613 41.9561C39.5806 41.9561 38.4613 43.0754 38.4613 44.4561H40.9613H43.4613ZM40.9613 74.7943H38.4613C38.4613 75.7022 38.9535 76.5387 39.7472 76.9797L40.9613 74.7943ZM75.0917 93.7556L73.8776 95.941C74.6327 96.3605 75.5508 96.3605 76.3058 95.941L75.0917 93.7556ZM109.222 74.7943L110.436 76.9797C111.23 76.5387 111.722 75.7022 111.722 74.7943H109.222ZM111.722 44.4561C111.722 43.0754 110.603 41.9561 109.222 41.9561C107.841 41.9561 106.722 43.0754 106.722 44.4561H109.222H111.722ZM125.684 74.7943C125.683 76.175 126.803 77.2943 128.183 77.2943C129.564 77.2943 130.683 76.175 130.684 74.7943L128.184 74.7943L125.684 74.7943ZM22 33.0792L23.2404 35.2499L76.3322 4.9117L75.0918 2.74109L73.8515 0.570481L20.7597 30.9086L22 33.0792ZM75.0918 2.74109L73.8515 4.9117L126.943 35.2499L128.184 33.0792L129.424 30.9086L76.3322 0.570481L75.0918 2.74109ZM128.184 33.0792L126.943 30.9086L73.8515 61.2468L75.0918 63.4174L76.3322 65.588L129.424 35.2499L128.184 33.0792ZM75.0918 63.4174L76.3322 61.2468L23.2404 30.9086L22 33.0792L20.7597 35.2499L73.8515 65.588L75.0918 63.4174ZM40.9613 44.4561H38.4613V74.7943H40.9613H43.4613V44.4561H40.9613ZM40.9613 74.7943L39.7472 76.9797L73.8776 95.941L75.0917 93.7556L76.3058 91.5702L42.1754 72.6089L40.9613 74.7943ZM75.0917 93.7556L76.3058 95.941L110.436 76.9797L109.222 74.7943L108.008 72.6089L73.8776 91.5702L75.0917 93.7556ZM109.222 74.7943H111.722V44.4561H109.222H106.722V74.7943H109.222ZM128.184 74.7943L130.684 74.7943L130.684 33.0793L128.184 33.0792L125.684 33.0792L125.684 74.7943L128.184 74.7943ZM75.0918 63.4174L72.5918 63.4174L72.5917 93.7556L75.0917 93.7556L77.5917 93.7556L77.5918 63.4174L75.0918 63.4174ZM0 130.5V133H150V130.5V128H0V130.5Z" fill="#E38888"/>
</svg>
