<svg width="150" height="132" viewBox="0 0 150 132" fill="none" xmlns="http://www.w3.org/2000/svg">
<path d="M81.6348 72.6715C81.6348 74.0522 82.7541 75.1715 84.1348 75.1715C85.5156 75.1715 86.6348 74.0522 86.6348 72.6715H84.1348H81.6348ZM94.463 52.8098L92.7354 51.0027L92.7349 51.0032L94.463 52.8098ZM74.6012 2.75817L74.5942 5.25817H74.6012V2.75817ZM46.0003 31.3591L48.5003 31.3591L48.5003 31.3521L46.0003 31.3591ZM54.7394 52.8098L56.4556 50.9918L56.4555 50.9918L54.7394 52.8098ZM62.5676 72.6715C62.5676 74.0522 63.6868 75.1715 65.0676 75.1715C66.4483 75.1715 67.5676 74.0522 67.5676 72.6715H65.0676H62.5676ZM68.2454 89.2388C66.8647 89.2388 65.7454 90.3581 65.7454 91.7388C65.7454 93.1195 66.8647 94.2388 68.2454 94.2388V91.7388V89.2388ZM80.957 94.2388C82.3377 94.2388 83.457 93.1195 83.457 91.7388C83.457 90.3581 82.3377 89.2388 80.957 89.2388V91.7388V94.2388ZM65.0676 79.7052C63.6868 79.7052 62.5676 80.8245 62.5676 82.2052C62.5676 83.5859 63.6868 84.7052 65.0676 84.7052V82.2052V79.7052ZM84.1348 84.7052C85.5156 84.7052 86.6348 83.5859 86.6348 82.2052C86.6348 80.8245 85.5156 79.7052 84.1348 79.7052V82.2052V84.7052ZM72.1012 72.6715C72.1012 74.0522 73.2205 75.1715 74.6012 75.1715C75.9819 75.1715 77.1012 74.0522 77.1012 72.6715H74.6012H72.1012ZM83.6406 46.0765C84.7485 45.2525 84.9785 43.6863 84.1544 42.5785C83.3304 41.4707 81.7643 41.2407 80.6564 42.0647L82.1485 44.0706L83.6406 46.0765ZM68.5457 42.0647C67.4378 41.2407 65.8717 41.4707 65.0477 42.5786C64.2236 43.6864 64.4537 45.2525 65.5616 46.0766L67.0536 44.0706L68.5457 42.0647ZM84.1348 72.6715H86.6348V67.9047H84.1348H81.6348V72.6715H84.1348ZM84.1348 67.9047H86.6348C86.6348 65.9008 87.7503 63.6642 89.7199 61.2257C91.6644 58.8183 94.0822 56.6335 96.191 54.6164L94.463 52.8098L92.7349 51.0032C90.78 52.8731 88.0338 55.3558 85.8302 58.084C83.6516 60.7813 81.6348 64.1487 81.6348 67.9047H84.1348ZM94.463 52.8098L96.1905 54.6169C102.455 48.6284 105.702 40.5981 105.702 31.3591H103.202H100.702C100.702 39.3561 97.9273 46.0394 92.7354 51.0027L94.463 52.8098ZM103.202 31.3591H105.702C105.702 14.092 91.928 0.258168 74.6012 0.258168V2.75817V5.25817C89.1605 5.25817 100.702 16.8473 100.702 31.3591H103.202ZM74.6012 2.75817L74.6082 0.258177C70.5198 0.246773 66.4696 1.04362 62.6902 2.6029L63.6437 4.91393L64.5972 7.22496C67.7674 5.917 71.1648 5.24859 74.5942 5.25816L74.6012 2.75817ZM63.6437 4.91393L62.6902 2.6029C58.9109 4.16217 55.4771 6.45313 52.5861 9.34404L54.3539 11.1118L56.1217 12.8796C58.5466 10.4546 61.427 8.53291 64.5972 7.22496L63.6437 4.91393ZM54.3539 11.1118L52.5861 9.34404C49.6952 12.2349 47.4043 15.6688 45.845 19.4481L48.156 20.4016L50.4671 21.3551C51.775 18.1849 53.6967 15.3045 56.1217 12.8796L54.3539 11.1118ZM48.156 20.4016L45.845 19.4481C44.2857 23.2274 43.4889 27.2777 43.5003 31.3661L46.0003 31.3591L48.5003 31.3521C48.4907 27.9227 49.1591 24.5253 50.4671 21.3551L48.156 20.4016ZM46.0003 31.3591L43.5003 31.3591C43.5003 40.2754 46.8674 48.8168 53.0234 54.6278L54.7394 52.8098L56.4555 50.9918C51.4134 46.2323 48.5003 39.0631 48.5003 31.3591L46.0003 31.3591ZM54.7394 52.8098L53.0233 54.6277C55.1143 56.6016 57.5324 58.774 59.4749 61.1773C61.4427 63.6118 62.5676 65.8675 62.5676 67.9047H65.0676H67.5676C67.5676 64.1224 65.5493 60.7384 63.3635 58.0342C61.1524 55.2987 58.4064 52.8334 56.4556 50.9918L54.7394 52.8098ZM65.0676 67.9047H62.5676V72.6715H65.0676H67.5676V67.9047H65.0676ZM68.2454 91.7388V94.2388H80.957V91.7388V89.2388H68.2454V91.7388ZM65.0676 82.2052V84.7052H84.1348V82.2052V79.7052H65.0676V82.2052ZM74.6012 72.6715H77.1012V47.2485H74.6012H72.1012V72.6715H74.6012ZM82.1485 44.0706C80.6564 42.0647 80.6568 42.0645 80.6571 42.0642C80.6572 42.0642 80.6575 42.0639 80.6577 42.0638C80.658 42.0635 80.6583 42.0633 80.6586 42.0632C80.659 42.0628 80.6592 42.0627 80.6592 42.0627C80.6591 42.0628 80.658 42.0636 80.6559 42.0651C80.6518 42.0682 80.6437 42.074 80.6319 42.0826C80.6083 42.0997 80.5699 42.1274 80.5177 42.1641C80.4134 42.2377 80.2552 42.3471 80.0534 42.4802C79.6472 42.7481 79.0763 43.1043 78.4191 43.4577C76.9995 44.2211 75.5798 44.7485 74.6012 44.7485V47.2485V49.7485C76.8978 49.7485 79.2518 48.687 80.7871 47.8614C81.6073 47.4203 82.3091 46.9821 82.8063 46.6541C83.0561 46.4893 83.2573 46.3504 83.3994 46.2502C83.4705 46.2001 83.527 46.1595 83.5676 46.13C83.5879 46.1153 83.6043 46.1034 83.6165 46.0944C83.6226 46.0899 83.6277 46.0861 83.6317 46.0831C83.6337 46.0817 83.6355 46.0804 83.637 46.0793C83.6377 46.0787 83.6384 46.0782 83.639 46.0777C83.6393 46.0775 83.6397 46.0772 83.6399 46.0771C83.6403 46.0768 83.6406 46.0765 82.1485 44.0706ZM74.6012 47.2485V44.7485C73.6225 44.7485 72.2028 44.2211 70.7832 43.4577C70.1259 43.1043 69.5549 42.7481 69.1488 42.4802C68.9469 42.347 68.7887 42.2377 68.6844 42.1641C68.6323 42.1273 68.5938 42.0997 68.5702 42.0826C68.5584 42.074 68.5504 42.0681 68.5462 42.0651C68.5441 42.0635 68.543 42.0627 68.5429 42.0627C68.5429 42.0626 68.5431 42.0628 68.5435 42.0631C68.5438 42.0633 68.5441 42.0635 68.5444 42.0638C68.5446 42.0639 68.5449 42.0641 68.545 42.0642C68.5453 42.0644 68.5457 42.0647 67.0536 44.0706C65.5616 46.0766 65.5619 46.0768 65.5623 46.0771C65.5625 46.0773 65.5629 46.0776 65.5632 46.0778C65.5638 46.0782 65.5645 46.0787 65.5652 46.0793C65.5667 46.0804 65.5685 46.0817 65.5705 46.0832C65.5745 46.0862 65.5796 46.0899 65.5857 46.0944C65.598 46.1034 65.6143 46.1153 65.6346 46.1301C65.6752 46.1595 65.7317 46.2001 65.8028 46.2503C65.9449 46.3504 66.1461 46.4894 66.3959 46.6541C66.8932 46.9821 67.595 47.4204 68.4152 47.8614C69.9506 48.687 72.3047 49.7485 74.6012 49.7485V47.2485ZM0 129.5V132H150V129.5V127H0V129.5Z" fill="#E38888"/>
</svg>
