<svg width="48" height="75" viewBox="0 0 48 75" fill="none" xmlns="http://www.w3.org/2000/svg">
<path d="M31.5715 57.7856V53.982C31.5715 49.3861 36.4293 45.0389 39.5805 41.9374C44.0223 37.5681 46.3572 31.6979 46.3572 24.8214C46.3572 12.1429 36.5417 2.00009 24.1787 2.00009C21.2639 1.99172 18.3762 2.5763 15.6817 3.72022C12.9872 4.86414 10.539 6.54482 8.47791 8.66565C6.41682 10.7865 4.78347 13.3056 3.67177 16.0782C2.56007 18.8508 1.99196 21.8221 2.00009 24.8214C2.00009 31.4523 4.43511 37.7202 8.77687 41.9374C11.9111 44.9819 16.7858 49.3385 16.7858 53.982V57.7856M19.2501 72.9998H29.1072M16.7858 65.3927H31.5715M24.1787 57.7856V37.4999" stroke="#01408D" stroke-width="3" stroke-linecap="round" stroke-linejoin="round"/>
<path d="M30.0313 34.9642C30.0313 34.9642 26.7184 37.4999 24.1786 37.4999C21.6389 37.4999 18.3259 34.9642 18.3259 34.9642" stroke="#01408D" stroke-width="3" stroke-linecap="round" stroke-linejoin="round"/>
</svg>
