<svg width="237" height="39" viewBox="0 0 237 39" fill="none" xmlns="http://www.w3.org/2000/svg">
<path d="M31.8121 0C39.6572 0 45.6422 2.18371 45.6422 8.95051V10.0019C45.6422 13.3719 44.1325 15.5016 41.3826 17.0653V18.5211C44.8065 20.0847 46.2623 22.7807 46.2623 26.2584V27.876C46.2623 33.4296 42.0027 37.5005 32.5939 37.5005H0V0H31.8121ZM11.4847 14.7198H29.5744C31.9738 14.7198 33.834 14.0998 33.834 12.0239V11.1342C33.834 9.16619 31.9738 8.43828 29.5744 8.43828H11.4847V14.7198ZM11.4847 29.0622H29.6823C32.7017 29.0622 34.4541 28.1725 34.4541 26.0428V25.207C34.4541 22.8615 32.7287 22.1876 29.6823 22.1876H11.4847V29.0892V29.0622Z" fill="#163367"/>
<path d="M77.2647 0V7.33295H61.197V14.8277H75.0271V21.891H61.197V30.1675H77.5613V37.5005H52.4082V0H77.2647Z" fill="#163367"/>
<path d="M92.1743 0V30.1406H106.948V37.5274H83.3047V0H92.1474H92.1743Z" fill="#163367"/>
<path d="M130.673 0L140.756 18.4132H142.993L153.238 0H171.489V37.5274H159.735V10.649H158.01L147.819 28.9004H134.312L124.337 10.649H122.612V37.5274H111.424V0H130.7H130.673Z" fill="#163367"/>
<path d="M186.774 0V23.859C186.774 27.7682 188.122 30.1945 192.274 30.1945H193.002C197.154 30.1945 198.502 27.7951 198.502 23.859V0H207.344V23.859C207.344 33.2139 202.033 38.0936 193.002 38.0936H192.274C183.243 38.0936 177.932 33.2139 177.932 23.859V0H186.774Z" fill="#163367"/>
<path d="M222.226 0V30.1406H237V37.5274H213.356V0H222.199H222.226Z" fill="#163367"/>
</svg>
