<svg width="245" height="122" viewBox="0 0 245 122" fill="none" xmlns="http://www.w3.org/2000/svg">
<path d="M138.901 0.169669C154.596 1.33746 168.012 12.9779 171.244 28.3086C176.355 52.5519 155.605 74.6277 131.026 70.8908C123.795 69.7884 116.844 66.2664 111.612 61.2122C99.0564 66.5373 84.1554 61.6886 77.13 50.1135C63.7612 28.0751 84.7066 1.86997 109.501 9.43722C110.024 9.59604 111.155 10.1846 111.603 10.0912C111.846 10.0445 113.836 8.17601 114.275 7.83035C119.637 3.58895 126.906 0.683495 133.754 0.160327C135.183 0.0482197 137.481 0.057562 138.911 0.160327L138.901 0.169669ZM128.485 35.7077H120.646C120.525 33.7832 120.338 31.9802 119.806 30.121C115.415 14.8277 95.0486 10.9507 85.2485 23.5908C74.3928 37.5855 86.0893 57.6995 103.55 55.2518C104.447 55.1304 105.344 54.9155 106.203 54.6539C102.803 48.9644 100.673 42.4062 100.822 35.7171H108.772C108.511 49.3475 119.152 61.2776 132.595 63.0806C153.204 65.846 169.535 45.8628 162.434 26.272C156.53 9.96973 136.771 3.00038 121.889 12.2025C121.506 12.4361 118.769 14.2485 118.731 14.4353C118.675 14.7904 119.105 14.9025 119.301 15.0986C120.665 16.4253 122.02 17.7705 123.15 19.3027C126.607 23.9738 128.587 29.8875 128.485 35.7171V35.7077Z" fill="#E38888"/>
<path d="M107.091 86.0812V120.797H101.42C101.42 120.797 101.29 120.676 101.29 120.666V118.125C97.1416 122.479 89.5743 122.236 85.1367 118.434C78.7092 112.922 78.9988 102.281 85.9121 97.3107C90.3497 94.1156 97.0295 94.0409 101.019 98.002V86.0719H107.091V86.0812ZM93.1524 100.618C84.7724 101.403 84.7724 115.08 93.3019 115.724C103.634 116.5 103.541 99.6462 93.1524 100.618Z" fill="#E38888"/>
<path d="M197.664 86.0814V98.0115C202.644 93.1629 210.902 94.3867 215.153 99.5717C219.703 105.121 219.039 113.697 213.593 118.396C209.099 122.283 201.495 122.479 197.3 118.041V120.797H191.592V86.0814H197.664ZM203.802 100.618C195.17 101.496 195.656 116.463 205.381 115.725C214.518 115.033 213.798 99.5997 203.802 100.618Z" fill="#E38888"/>
<path d="M33.2872 109.848C33.5488 112.931 35.6695 115.435 38.7898 115.892C41.3216 116.266 43.5824 115.584 45.2453 113.632C45.4041 113.445 45.7498 112.791 45.918 112.791L50.776 115.22C47.8985 121.582 38.7057 122.927 33.091 119.536C23.8608 113.949 25.2155 98.5812 35.8376 95.5169C43.4609 93.3215 50.86 97.759 51.7569 105.719C51.9064 107.036 51.9251 108.624 51.4579 109.848H33.2965H33.2872ZM45.2453 105.224C44.6941 98.1608 34.3522 98.4597 33.4647 105.224H45.2453Z" fill="#E38888"/>
<path d="M244.693 109.848H226.485C226.812 114.304 230.708 116.696 234.987 115.79C236.229 115.528 237.434 114.753 238.266 113.809C238.453 113.594 238.892 112.791 239.116 112.791L243.75 115.024C244.123 115.313 243.479 116.163 243.273 116.481C239.91 121.741 231.521 122.61 226.382 119.62C214.704 112.838 220.151 92.6022 235.267 95.1807C242.18 96.3578 246.132 103.159 244.712 109.848H244.693ZM238.808 105.224C238.527 101.646 235.491 99.5622 232.006 100.085C229.353 100.478 227.326 102.58 227.027 105.224H238.808Z" fill="#E38888"/>
<path d="M127.168 120.797V118.125C124.328 121.292 119.189 122.096 115.275 120.685C111.361 119.274 109.716 115.519 110.949 111.604C112.902 105.42 121.758 106.055 126.813 104.71C127.168 101.132 123.926 99.7397 120.815 100.347C119.115 100.674 117.816 101.804 116.929 103.234C116.788 103.467 116.676 104.009 116.377 103.934L111.557 101.655C115.069 92.2939 132.371 92.5181 132.979 103.748C133.278 109.231 132.745 114.977 132.979 120.489C132.997 120.582 132.913 120.797 132.838 120.797H127.168ZM126.813 109.493C124.767 109.839 122.674 110.063 120.637 110.502C118.797 110.894 116.9 111.576 116.9 113.809C116.9 117.369 122.011 117.06 124.159 115.622C125.355 114.818 126.813 112.782 126.813 111.324V109.502V109.493Z" fill="#E38888"/>
<path d="M160.1 120.713H154.027V105.532C154.027 104.075 153.037 102.216 151.822 101.412C148.525 99.2167 143.76 101.459 143.76 105.532V120.713H137.688V95.6105H143.396V98.544C144.685 96.5634 146.721 95.3957 149.076 95.0874C154.924 94.3213 159.707 97.9087 160.081 103.85V120.723L160.1 120.713Z" fill="#E38888"/>
<path d="M77.3734 120.713H71.3009V105C71.3009 103.916 70.2172 102.234 69.3764 101.571C66.3869 99.2073 61.1272 101.263 61.1272 105.177V120.713H55.0547V95.6105H60.7628V98.544L61.9213 97.0773C67.5734 92.4902 76.7942 95.732 77.3641 103.309V120.713H77.3734Z" fill="#E38888"/>
<path d="M180.709 95.5168H186.781V112.034C185.969 124.207 165.107 125.02 164.379 111.231C164.108 106.176 164.593 100.898 164.379 95.8251C164.36 95.7317 164.444 95.5168 164.519 95.5168H170.404C170.404 95.5168 170.535 95.6383 170.535 95.6476V111.492C170.535 112.501 171.544 114.071 172.329 114.687C175.253 116.985 180.709 115.285 180.709 111.315V95.5168Z" fill="#E38888"/>
<path d="M10.2672 88.4821V95.6009H14.5553V100.898C14.5553 100.898 14.4338 101.029 14.4245 101.029H10.2765V120.788H4.34416C4.34416 120.788 4.21337 120.666 4.21337 120.657V101.029H0V95.6009H4.19469V88.4821H10.2672Z" fill="#E38888"/>
<path d="M23.6545 95.601H17.582V120.704H23.6545V95.601Z" fill="#E38888"/>
<path d="M19.9649 84.9416C25.5423 84.1848 25.5236 92.5649 20.2078 92.0417C16.0785 91.6306 16.0972 85.4647 19.9649 84.9416Z" fill="#E38888"/>
</svg>
